<?xml version="1.0" encoding="UTF-8"?>
<svg id="Layer_2" data-name="Layer 2" xmlns="http://www.w3.org/2000/svg" viewBox="0 0 1109.59 358.92">
  <defs>
    <style>
      .cls-1 {
        fill: #201d1d;
      }

      .cls-2 {
        fill: #b4b6b8;
      }
    </style>
  </defs>
  <g id="Layer_1-2" data-name="Layer 1">
    <path class="cls-2" d="M177.19,358.92c143.45,0,206.64-47.02,374.92-47.02h1.69c168.28,0,231.47,47.03,374.92,47.02h1.41c99.11,0,179.46-80.35,179.46-179.46S1029.24,0,930.13,0h.86c-143.45,0-206.64,47.02-374.92,47.02h-1.69C386.1,47.02,322.91,0,179.46,0,80.35,0,0,80.35,0,179.46s80.35,179.46,179.46,179.46"/>
    <g>
      <path class="cls-1" d="M244.63,153.47c-4.2,0-8.35,1.06-12.02,3.06-7.84,4.13-9.12,4.13-16.96,0-3.67-2-7.82-3.06-12.02-3.06-13.86,0-25.13,11.27-25.13,25.13s11.27,25.13,25.13,25.13c4.2,0,8.35-1.06,12.02-3.06,7.84-4.13,9.12-4.13,16.97,0,3.67,2,7.82,3.06,12.02,3.06,13.86,0,25.13-11.27,25.13-25.13s-11.27-25.13-25.13-25.13ZM244.63,197.18c-3.11,0-6.18-.78-8.89-2.26l-.05-.02c-4.86-2.56-8.21-3.84-11.56-3.84s-6.7,1.28-11.56,3.84l-.05.02c-2.71,1.48-5.79,2.26-8.89,2.26-10.24,0-18.57-8.33-18.57-18.57s8.33-18.57,18.57-18.57c3.11,0,6.18.78,8.9,2.27l.05.02c9.72,5.12,13.39,5.12,23.12,0l.05-.02c2.71-1.48,5.79-2.27,8.9-2.27,10.24,0,18.57,8.33,18.57,18.57s-8.33,18.57-18.57,18.57Z"/>
      <path class="cls-1" d="M125.57,179.36c-3.44-2-7.34-3.01-11.01-4.49-.74-.32-1.47-.66-2.18-1.05-.37-.2-.73-.42-1.08-.64-.18-.11-.35-.23-.52-.35-.05-.03-.09-.07-.14-.1-.6-.51-1.18-1.03-1.68-1.64-.11-.16-.22-.32-.33-.48-.23-.36-.43-.73-.61-1.11-.18-.5-.31-1-.41-1.52-.05-.61-.05-1.22,0-1.84.11-.6.27-1.18.47-1.75.2-.42.41-.83.66-1.22.06-.1.13-.19.2-.29.17-.2.35-.39.53-.58.19-.19.39-.36.59-.53.09-.06.18-.13.27-.19.43-.29.88-.54,1.34-.76.81-.31,1.65-.54,2.51-.68,1.14-.12,2.29-.11,3.43.01,1.19.2,2.36.51,3.48.95,1.19.53,2.35,1.12,3.45,1.83.31.2.61.4.9.61.15.11.29.22.44.32-.08-.06-.14-.1-.19-.14.04.03.07.06.1.08.61.5,1.18,1.04,1.72,1.62,1.17,1.25,3.46,1.28,4.64,0,1.23-1.34,1.25-3.3,0-4.64-6.6-7.05-19.34-10.54-27.09-3.32-3.46,3.23-4.81,8.45-3.61,12.98,1.06,3.99,4.14,7.12,7.68,9.06,3.38,1.85,7.13,2.85,10.69,4.3.7.31,1.39.63,2.06,1,.37.2.72.41,1.08.64.17.11.35.23.52.35.04.03.09.06.13.09.59.5,1.15,1.02,1.65,1.61.12.16.23.33.33.49.21.33.39.67.56,1.02.22.59.38,1.19.5,1.8.03.43.03.86,0,1.29-.07.34-.16.67-.27,1-.19.39-.41.77-.66,1.14-.04.04-.07.09-.11.13-.2.22-.41.43-.63.63-.08.07-.16.15-.25.22-.18.13-.37.26-.56.38-.41.25-.84.47-1.27.67-.91.34-1.85.59-2.8.74-1.88.2-3.77.2-5.64,0-2.32-.36-4.57-1.02-6.74-1.89-2.17-.95-4.26-2.09-6.25-3.37-1.45-.93-3.68-.34-4.48,1.18-.86,1.63-.37,3.49,1.18,4.48,4.45,2.86,9.46,5.18,14.73,5.96,4.85.71,10.32.57,14.6-2.1,1.83-1.14,3.5-2.73,4.48-4.67,1.17-2.3,1.45-4.71,1.06-7.24-.67-4.34-3.74-7.85-7.45-10Z"/>
      <path class="cls-1" d="M125.7,163.71c-.18-.14-.41-.29,0,0h0Z"/>
      <path class="cls-1" d="M163.4,160.03c2.67,0,5.26.56,7.68,1.66,1.65.75,3.59.02,4.34-1.63.75-1.65.02-3.59-1.63-4.34-3.28-1.5-6.78-2.25-10.4-2.25-13.86,0-25.13,11.27-25.13,25.13s11.27,25.13,25.13,25.13c3.61,0,7.11-.76,10.4-2.25,1.65-.75,2.38-2.69,1.63-4.34-.75-1.65-2.69-2.38-4.34-1.63-2.43,1.1-5.01,1.66-7.68,1.66-10.24,0-18.57-8.33-18.57-18.57s8.33-18.57,18.57-18.57Z"/>
      <path class="cls-1" d="M293.64,153.47c-7.37,0-14.34,3.22-19.13,8.84-1.17,1.38-1.01,3.45.37,4.62.62.53,1.37.78,2.12.78.93,0,1.85-.39,2.5-1.15,2.82-3.31,6.66-5.49,10.86-6.24v40.13c0,1.81,1.47,3.28,3.28,3.28s3.28-1.47,3.28-3.28v-40.13c4.2.75,8.04,2.93,10.86,6.24,1.17,1.38,3.24,1.54,4.62.37,1.38-1.17,1.54-3.24.37-4.62-4.79-5.62-11.76-8.84-19.13-8.84Z"/>
      <path class="cls-1" d="M429.89,153.47c-4.2,0-8.35,1.06-12.02,3.06-7.84,4.13-9.12,4.13-16.96,0-3.67-2-7.82-3.06-12.02-3.06-13.86,0-25.13,11.27-25.13,25.13s11.27,25.13,25.13,25.13c4.2,0,8.35-1.06,12.02-3.06,7.84-4.13,9.12-4.13,16.97,0,3.67,2,7.82,3.06,12.02,3.06,13.86,0,25.13-11.27,25.13-25.13s-11.27-25.13-25.13-25.13ZM429.89,197.18c-3.11,0-6.18-.78-8.89-2.26l-.04-.02c-4.86-2.56-8.21-3.84-11.56-3.84s-6.7,1.28-11.56,3.84l-.04.02c-2.71,1.48-5.79,2.26-8.89,2.26-10.24,0-18.57-8.33-18.57-18.57s8.33-18.57,18.57-18.57c3.11,0,6.19.78,8.89,2.27l.05.02c9.72,5.12,13.39,5.12,23.12,0l.04-.02c2.71-1.48,5.79-2.27,8.9-2.27,10.24,0,18.57,8.33,18.57,18.57s-8.33,18.57-18.57,18.57Z"/>
      <path class="cls-1" d="M498.03,162.32c-4.79-5.62-11.76-8.84-19.13-8.84s-14.34,3.22-19.13,8.84c-1.17,1.38-1.01,3.45.37,4.62,1.38,1.17,3.45,1.01,4.62-.37,2.82-3.31,6.66-5.49,10.86-6.24v40.13c0,1.81,1.47,3.28,3.28,3.28s3.28-1.47,3.28-3.28v-40.13c4.2.75,8.04,2.93,10.86,6.24.65.76,1.57,1.15,2.5,1.15.75,0,1.51-.26,2.12-.78,1.38-1.17,1.54-3.24.37-4.62Z"/>
      <path class="cls-1" d="M349.24,192.48s.02-.02.03-.03c.02-.03.05-.06.08-.1-.04.05-.08.09-.1.12Z"/>
      <path class="cls-1" d="M351.07,177.27c-.65-.4-1.32-.73-2.01-1.02,1.22-.99,2.31-2.12,3.18-3.44,1.42-2.15,2.19-4.92,1.89-7.49-.34-2.91-1.65-5.62-3.9-7.55-2.18-1.87-4.83-3-7.64-3.55-5.96-1.16-11.97-.33-17.98-.41-1.77-.02-3.28,1.52-3.28,3.28v37.99c0,1.64-.04,3.3,0,4.94.01.42.09.8.2,1.19.15.53.45,1.01.83,1.4.41.44.94.76,1.54.91.04.01.08.02.12.03,0,0,0,0,.01,0,.32.07.65.09.98.06,6.09-.06,12.23.37,18.24-.94,1.41-.31,2.8-.73,4.14-1.28,1.49-.62,2.96-1.28,4.25-2.27,2.36-1.8,4.11-4.1,5.07-6.92.84-2.46.88-5.35.06-7.83-1-2.98-3.01-5.46-5.7-7.1ZM344.85,171.26c-.15.11-.25.17,0,0h0ZM346.38,169.79s0,0,0,0c-.19.26-.11.14,0,0ZM339.93,160.38c1.31.2,2.6.51,3.84.98.42.19.84.4,1.23.64.1.06.2.13.3.2.02,0,.19.12.3.2.06.04.12.09.18.13-.06-.04-.11-.07-.16-.1.12.11.25.22.37.33.21.2.42.41.61.64.01.01.03.04.05.06.02.02.03.04.04.06.24.35.45.73.63,1.12.12.36.22.72.29,1.09.03.41.03.83,0,1.24-.09.47-.22.94-.38,1.39-.11.22-.22.44-.34.66-.11.19-.22.37-.34.54-.02.03-.03.05-.05.07-.29.28-.53.63-.82.92-.17.16-.34.32-.52.47-.06.05-.16.12-.24.19-1.18.81-2.35,1.58-3.66,2.18-1.22.47-2.49.79-3.78.99-.37.04-.74.07-1.1.09-.49,0-.97,0-1.45,0-2.34,0-4.69.03-7.03.04v-12.13c0-.69,0-1.37.01-2.06,4.01-.12,8.03-.42,12.03.06ZM349.3,192.41s-.03.03-.04.04c-.09.11-.14.17-.03.03-.22.26-.46.51-.7.75-.14.13-.28.26-.42.38-.03.02-.06.05-.1.08.06-.04.13-.09.21-.14-.09.06-.19.13-.28.2-.11.08-.22.16-.21.14-.12.08-.23.16-.36.24-.64.4-1.31.73-1.99,1.04-1.88.75-3.84,1.23-5.84,1.54-3.87.48-7.76.39-11.65.35v-15.96c1.73,0,3.46.02,5.19,0,.92,0,1.84-.01,2.75-.05.35,0,.7,0,1.06,0,2.01.04,4.02.07,6.02.3,1.23.19,2.45.48,3.62.93.5.23.99.48,1.46.78.15.1.29.2.44.3.2.18.41.36.6.56.18.18.35.37.51.56-.03-.04-.05-.08-.08-.13.04.06.08.11.12.17.01.02.03.03.04.04.11.14.23.35.17.27.22.34.42.7.59,1.07.17.47.3.95.39,1.44.05.55.04,1.1,0,1.65-.11.61-.28,1.21-.5,1.79-.23.49-.5.96-.81,1.4-.03.05-.07.1-.12.16.06-.07.13-.16.23-.27-.09.11-.17.22-.26.32Z"/>
      <path class="cls-1" d="M345.62,162.43s-.02-.02-.03-.02c0,0,0,0,0,0-.1-.07-.2-.14-.3-.2-.02,0,.06.05.32.23Z"/>
      <path class="cls-1" d="M349.7,184.71c-.04-.06-.08-.12-.12-.17-.01-.01-.02-.03-.04-.04.14.21.21.32.24.35-.03-.05-.05-.1-.08-.14Z"/>
      <path class="cls-1" d="M347.73,193.89c.07-.05.14-.1.21-.14.02-.02.05-.04.07-.05-.19.13-.27.19-.28.2Z"/>
    </g>
  </g>
</svg>